<?xml version="1.0" standalone="no"?>
<!DOCTYPE svg PUBLIC "-//W3C//DTD SVG 20010904//EN"
 "http://www.w3.org/TR/2001/REC-SVG-20010904/DTD/svg10.dtd">
<svg version="1.0" xmlns="http://www.w3.org/2000/svg"
 width="3000.000000pt" height="3000.000000pt" viewBox="0 0 3000.000000 3000.000000"
 preserveAspectRatio="xMidYMid meet">

<g transform="translate(0.000000,3000.000000) scale(0.100000,-0.100000)"
fill="#000000" stroke="none">
<path d="M8100 18504 c-388 -27 -716 -102 -1110 -256 -114 -44 -344 -160 -482
-241 -230 -137 -577 -428 -787 -661 -72 -81 -242 -309 -298 -402 -15 -25 -35
-56 -43 -69 -129 -202 -299 -574 -355 -780 -79 -291 -92 -349 -100 -435 -4
-41 -13 -115 -22 -165 -21 -128 -21 -654 1 -786 8 -52 18 -125 21 -164 8 -84
24 -154 87 -380 21 -74 54 -177 69 -210 10 -24 37 -99 49 -140 15 -47 174
-364 212 -420 19 -27 51 -79 73 -115 21 -36 54 -85 72 -110 19 -25 72 -97 120
-160 86 -116 252 -304 308 -350 34 -28 72 -62 160 -141 100 -90 323 -252 450
-326 138 -81 430 -229 490 -248 22 -7 85 -30 140 -50 331 -123 884 -209 1230
-190 232 12 530 51 652 84 21 6 88 23 148 37 346 82 811 310 1142 561 165 124
324 264 404 355 35 39 77 86 93 102 95 102 252 315 365 496 140 223 236 432
346 755 32 92 84 296 94 365 6 41 15 104 21 140 5 36 16 164 25 285 15 201 15
238 0 434 -24 323 -42 450 -90 626 -59 215 -122 390 -208 575 -86 186 -110
231 -204 377 -149 231 -251 364 -396 516 -288 304 -647 578 -932 712 -49 23
-115 54 -145 69 -83 42 -392 154 -499 182 -53 14 -118 32 -146 40 -65 18 -304
60 -425 73 -102 12 -440 21 -530 15z m340 -473 c244 -13 532 -65 720 -129 249
-84 472 -190 723 -343 150 -91 475 -371 592 -511 335 -397 513 -732 648 -1213
72 -261 82 -346 82 -735 0 -402 -7 -460 -88 -750 -146 -517 -405 -964 -766
-1319 -136 -133 -340 -301 -446 -366 -16 -10 -67 -43 -113 -72 -356 -230 -877
-388 -1357 -412 -174 -8 -433 2 -555 23 -180 31 -207 36 -265 50 -225 53 -417
119 -599 206 -109 52 -303 166 -383 224 -23 17 -77 56 -119 86 -90 64 -227
184 -300 261 -148 157 -215 233 -270 310 -116 158 -231 342 -274 435 -18 38
-43 92 -55 119 -107 230 -198 550 -247 865 -20 130 -17 586 5 722 9 59 19 113
22 120 3 7 11 47 19 88 29 146 62 268 101 375 15 39 33 89 40 111 23 73 150
325 225 449 104 171 313 437 450 573 43 43 177 157 231 197 15 11 69 52 120
90 172 129 432 267 694 370 119 47 444 135 498 135 15 0 63 7 105 16 63 13
185 23 382 32 14 1 95 -3 180 -7z"/>
<path d="M8210 16513 c-8 -3 -33 -13 -55 -23 -48 -20 -88 -36 -215 -86 -52
-20 -113 -44 -135 -54 -49 -20 -91 -37 -215 -86 -52 -20 -114 -45 -137 -55
-23 -11 -46 -19 -52 -19 -5 0 -22 -7 -38 -15 -15 -8 -93 -39 -173 -70 -80 -31
-157 -63 -172 -71 -14 -8 -31 -14 -38 -14 -6 0 -30 -8 -53 -19 -23 -10 -85
-35 -137 -55 -113 -44 -161 -64 -215 -86 -22 -9 -60 -24 -85 -34 -25 -10 -64
-26 -88 -37 -23 -10 -46 -19 -51 -19 -5 0 -34 -11 -66 -25 l-58 -26 34 -24
c18 -14 38 -25 45 -25 10 0 66 -22 129 -50 11 -5 72 -30 135 -55 63 -25 124
-50 135 -55 11 -5 49 -21 85 -35 36 -14 74 -30 85 -35 11 -5 49 -21 85 -35 36
-15 79 -33 97 -41 17 -8 36 -14 41 -14 6 0 23 -6 39 -14 15 -8 53 -24 83 -36
30 -12 69 -28 85 -35 17 -7 55 -22 85 -35 30 -12 68 -28 83 -36 16 -8 33 -14
39 -14 5 0 24 -6 41 -14 18 -8 61 -26 97 -41 36 -14 74 -30 85 -35 11 -5 49
-21 85 -35 36 -15 79 -32 95 -39 17 -7 73 -30 125 -50 52 -20 108 -44 124 -52
71 -36 117 -29 273 42 17 8 36 14 41 14 6 0 23 7 39 15 15 8 71 31 123 51 52
20 113 45 135 54 22 9 83 34 135 54 52 21 109 43 125 51 17 7 73 30 125 51 52
20 114 45 137 55 23 11 48 19 55 19 8 0 18 4 24 9 5 5 41 21 79 35 39 15 83
33 98 41 16 8 33 15 38 15 6 0 29 8 52 19 23 10 85 35 137 55 52 21 109 43
125 51 31 14 86 36 190 76 33 13 65 26 70 30 6 3 26 12 47 18 35 12 57 38 41
51 -4 3 -35 17 -68 29 -33 13 -78 32 -100 41 -22 9 -83 34 -135 54 -52 21
-106 42 -120 48 -14 5 -74 30 -135 55 -60 24 -123 50 -140 57 -16 7 -73 30
-125 51 -52 20 -117 46 -145 56 -27 11 -59 24 -70 29 -11 5 -72 30 -135 55
-63 25 -124 50 -135 55 -11 5 -45 19 -75 30 -98 39 -134 53 -175 70 -22 10
-83 34 -135 54 -52 21 -108 43 -125 51 -121 55 -189 73 -225 58z"/>
<path d="M6125 15516 c-3 -11 -4 -257 -3 -546 l3 -525 50 -24 c28 -13 63 -30
78 -37 16 -8 35 -14 43 -14 8 0 31 -9 51 -20 21 -11 43 -20 50 -20 6 0 24 -6
40 -14 28 -14 86 -38 173 -71 25 -9 65 -25 90 -35 25 -10 65 -26 90 -36 25
-10 64 -26 87 -36 23 -10 48 -18 55 -18 7 0 22 -7 32 -15 11 -8 26 -15 34 -15
8 0 33 -9 56 -19 23 -11 84 -36 136 -56 110 -42 159 -62 215 -85 22 -10 83
-34 135 -54 124 -49 166 -66 215 -86 37 -16 108 -44 299 -119 43 -17 82 -28
87 -25 5 3 9 241 9 550 l0 544 -54 25 c-30 14 -61 25 -68 25 -8 0 -18 4 -24 9
-5 5 -40 21 -79 35 -38 15 -83 33 -98 41 -16 8 -34 15 -40 15 -7 1 -30 9 -52
20 -22 11 -47 19 -55 20 -9 0 -20 4 -25 9 -6 5 -41 21 -80 36 -87 33 -138 53
-192 77 -23 10 -48 18 -55 18 -8 0 -18 4 -23 9 -6 5 -41 21 -80 36 -38 15
-110 42 -160 61 -49 19 -103 41 -118 49 -16 8 -33 15 -38 15 -6 0 -29 8 -52
19 -43 19 -155 63 -319 127 -51 19 -111 44 -134 55 -23 10 -48 19 -56 19 -8 0
-18 3 -21 6 -11 11 -119 54 -160 63 -33 8 -38 7 -42 -13z"/>
<path d="M10285 15511 c-37 -17 -88 -37 -317 -127 -51 -20 -106 -43 -122 -50
-16 -8 -34 -14 -40 -14 -6 -1 -29 -9 -51 -20 -22 -11 -44 -19 -48 -20 -4 0
-27 -8 -50 -18 -62 -27 -79 -34 -399 -158 -51 -19 -111 -44 -134 -55 -23 -10
-47 -19 -55 -19 -8 0 -23 -7 -33 -15 -11 -8 -27 -15 -35 -15 -9 -1 -34 -9 -56
-20 -22 -11 -45 -19 -52 -20 -6 0 -24 -7 -40 -15 -15 -8 -55 -24 -88 -36 -33
-12 -73 -28 -90 -35 -16 -7 -97 -40 -180 -72 l-150 -60 0 -543 0 -544 22 -3
c20 -3 100 25 200 69 23 11 46 19 51 19 5 0 22 6 38 14 26 12 122 51 329 131
39 15 88 35 110 45 48 20 88 36 215 86 52 20 114 45 137 55 23 11 46 19 52 19
5 0 22 7 38 15 15 8 71 31 123 51 52 20 114 45 137 55 23 11 48 19 56 19 7 0
22 7 33 15 10 8 25 15 33 15 8 0 32 9 55 19 23 11 84 36 136 56 52 20 108 42
123 50 16 8 33 15 39 15 6 0 35 12 65 27 l53 27 -2 536 -3 535 -30 2 c-16 2
-48 -6 -70 -16z"/>
<path d="M13838 16079 c-17 -9 -18 -66 -18 -974 0 -943 0 -965 19 -975 25 -13
181 -13 215 0 l26 10 0 765 c0 551 3 772 11 787 12 23 13 21 119 -297 17 -49
34 -99 39 -110 5 -11 21 -60 37 -110 15 -49 31 -97 36 -105 4 -8 33 -94 64
-190 31 -96 62 -188 70 -205 7 -16 16 -43 20 -60 4 -16 10 -34 14 -40 3 -5 37
-104 75 -218 37 -115 74 -215 82 -223 10 -10 40 -14 106 -14 123 0 134 4 142
47 3 20 11 43 16 52 10 18 36 89 50 141 6 19 14 44 19 55 12 26 37 97 55 155
13 44 106 310 146 420 11 30 24 69 29 85 5 17 27 82 49 145 23 63 62 176 87
250 47 142 84 229 97 230 4 0 7 -350 7 -779 0 -654 2 -780 14 -790 9 -8 51
-11 122 -9 l109 3 0 980 0 980 -167 3 -167 2 -20 -46 c-12 -26 -21 -51 -21
-56 0 -6 -6 -24 -14 -41 -17 -39 -44 -120 -57 -170 -5 -21 -13 -45 -18 -55
-11 -21 -40 -102 -76 -212 -86 -260 -126 -377 -135 -392 -5 -10 -14 -34 -19
-55 -12 -45 -39 -130 -52 -158 -9 -21 -20 -54 -63 -180 -14 -44 -31 -93 -37
-110 -6 -16 -15 -46 -21 -65 -14 -50 -48 -120 -59 -120 -5 0 -11 12 -15 28
-17 73 -537 1618 -547 1624 -18 12 -349 9 -369 -3z"/>
<path d="M17528 16084 c-17 -5 -18 -60 -18 -974 0 -948 0 -970 19 -980 21 -11
171 -14 209 -4 l22 6 0 377 c0 310 3 381 14 397 14 18 33 19 383 25 324 6 376
9 438 26 39 11 79 24 90 30 11 6 38 19 60 29 56 27 154 129 191 200 54 102 68
165 68 299 -1 142 -23 230 -83 322 -79 121 -173 184 -337 224 -84 21 -116 22
-564 25 -261 1 -483 0 -492 -2z m1037 -261 c64 -34 121 -93 147 -153 20 -47
23 -72 23 -170 0 -100 -3 -120 -23 -157 -87 -163 -241 -208 -699 -201 -209 3
-226 4 -239 22 -19 27 -21 655 -2 674 10 10 98 12 383 10 357 -3 371 -4 410
-25z"/>
<path d="M24695 16078 c-3 -7 -4 -449 -3 -983 l3 -970 97 -3 c57 -2 106 2 118
8 20 11 20 21 20 979 l0 969 -22 6 c-45 12 -208 7 -213 -6z"/>
<path d="M19822 15567 c-62 -4 -129 -14 -149 -22 -19 -8 -42 -15 -50 -15 -31
0 -148 -66 -197 -111 -74 -67 -159 -249 -127 -269 23 -14 181 -41 201 -35 11
4 25 25 35 55 21 65 77 135 125 160 52 27 153 50 217 50 75 0 181 -25 236 -55
79 -44 106 -94 121 -221 10 -85 -16 -100 -234 -135 -36 -5 -101 -17 -145 -25
-44 -7 -96 -14 -116 -14 -56 0 -210 -44 -276 -79 -165 -88 -247 -256 -214
-440 36 -203 212 -321 477 -321 69 0 130 5 156 14 24 8 56 17 73 21 42 9 161
70 218 111 27 20 56 34 65 32 11 -2 24 -26 37 -66 11 -35 28 -68 38 -74 18
-10 210 -8 220 2 3 3 -7 39 -21 80 l-27 75 -6 470 c-6 453 -9 502 -40 578 -71
177 -280 257 -617 234z m413 -786 c6 -39 -7 -164 -25 -231 -14 -52 -69 -134
-115 -170 -59 -47 -150 -85 -236 -100 -136 -22 -278 23 -329 105 -31 50 -40
100 -29 159 23 122 103 165 394 211 114 18 195 35 235 50 19 7 49 13 67 14 29
1 32 -2 38 -38z"/>
<path d="M22260 15565 c-173 -22 -334 -111 -412 -229 -62 -93 -69 -107 -99
-204 -26 -85 -30 -118 -36 -262 -5 -143 -3 -178 15 -265 68 -330 293 -515 625
-515 165 0 291 48 401 151 94 87 170 228 178 329 l3 35 -60 8 c-33 4 -78 11
-99 16 -34 8 -42 6 -62 -15 -13 -12 -24 -34 -24 -48 0 -54 -67 -168 -123 -208
-83 -59 -95 -63 -222 -63 -112 0 -123 2 -173 28 -152 80 -222 244 -222 517 0
182 39 320 115 408 136 157 382 176 517 40 29 -28 60 -74 78 -113 16 -36 36
-68 43 -71 8 -3 52 0 98 5 96 13 113 25 103 81 -8 46 -74 170 -114 214 -37 40
-137 111 -171 121 -13 4 -37 13 -54 20 -16 7 -64 16 -105 20 -41 3 -82 8 -90
9 -8 2 -58 -3 -110 -9z"/>
<path d="M23660 15568 c-177 -18 -321 -96 -430 -233 -28 -35 -50 -65 -50 -68
0 -4 -13 -34 -30 -69 -63 -135 -92 -422 -55 -558 8 -30 15 -66 15 -81 0 -34
72 -181 117 -238 20 -25 58 -64 84 -86 56 -47 184 -115 217 -115 12 0 39 -7
59 -15 53 -22 256 -20 353 4 95 23 190 70 254 125 53 45 146 172 146 198 0 8
7 23 15 34 8 10 15 31 15 46 0 30 3 29 -115 49 -104 17 -115 13 -150 -52 -48
-89 -110 -156 -174 -187 -52 -25 -65 -27 -181 -27 -118 0 -128 2 -180 29 -69
36 -147 116 -182 187 -44 86 -73 217 -54 247 5 9 125 12 499 13 271 1 503 4
516 8 43 12 46 29 33 165 -12 122 -26 177 -62 261 -10 22 -19 45 -21 50 -11
31 -90 126 -138 168 -96 82 -203 130 -316 142 -33 3 -69 7 -80 9 -11 2 -58 -1
-105 -6z m198 -204 c63 -18 121 -55 168 -106 43 -45 92 -151 102 -221 8 -51 7
-59 -9 -67 -25 -14 -735 -13 -760 1 -17 9 -19 17 -13 62 13 108 91 229 188
291 83 53 220 70 324 40z"/>
<path d="M21298 15561 c-53 -17 -98 -53 -149 -117 -28 -36 -56 -63 -63 -61 -6
2 -13 34 -16 71 -3 44 -10 70 -20 76 -8 5 -52 10 -97 10 -71 0 -84 -3 -93 -19
-15 -30 -14 -1373 2 -1389 13 -13 195 -17 215 -4 8 5 12 129 16 447 4 415 5
444 26 519 26 93 68 161 119 196 50 33 190 41 247 14 26 -12 42 -14 53 -8 23
15 81 178 70 198 -20 36 -104 66 -195 71 -49 3 -100 1 -115 -4z"/>
<path d="M15984 15526 c-6 -16 4 -55 36 -136 12 -30 26 -68 32 -85 5 -16 16
-44 24 -62 8 -17 14 -35 14 -40 1 -4 9 -26 20 -48 11 -22 19 -45 20 -52 0 -7
6 -27 14 -45 15 -35 73 -186 107 -278 11 -30 27 -70 35 -88 8 -18 14 -38 14
-45 0 -7 9 -29 20 -50 11 -20 20 -45 20 -55 0 -10 4 -22 10 -28 5 -5 16 -30
24 -54 8 -25 24 -70 36 -100 12 -30 37 -98 56 -151 37 -105 38 -97 -12 -224
-36 -94 -52 -121 -93 -158 -54 -49 -98 -61 -202 -55 -82 5 -88 4 -93 -15 -3
-11 -1 -39 4 -61 5 -23 13 -61 17 -85 8 -41 11 -45 53 -57 137 -41 308 18 395
136 37 51 115 199 115 220 0 6 7 24 15 38 15 27 82 200 92 237 2 11 11 34 18
50 7 17 23 57 35 90 12 33 28 76 35 95 7 19 22 60 34 90 11 30 35 96 54 145
19 50 37 99 40 110 3 11 24 67 47 125 23 58 47 123 55 145 7 22 23 65 35 95
12 30 26 69 31 85 5 17 13 39 19 50 5 11 16 38 23 60 8 22 27 73 42 112 15 40
25 80 21 88 -9 23 -186 22 -214 -2 -10 -10 -45 -90 -77 -178 -32 -88 -73 -199
-91 -247 -19 -49 -34 -91 -34 -95 0 -7 -30 -87 -51 -138 -22 -52 -129 -374
-129 -388 -1 -55 -56 -37 -65 21 -4 20 -13 53 -20 72 -8 19 -19 51 -24 70 -11
38 -36 113 -50 145 -15 36 -49 130 -54 150 -3 11 -17 52 -32 90 -14 39 -31 86
-37 105 -5 19 -14 40 -18 45 -4 6 -11 26 -15 45 -4 19 -12 40 -17 47 -6 7 -14
27 -18 45 -12 47 -71 201 -83 216 -15 18 -226 17 -233 -2z"/>
</g>
</svg>
